<?xml version="1.0" encoding="UTF-8"?>
<svg width="6px" height="11px" viewBox="0 0 6 11" version="1.1" xmlns="http://www.w3.org/2000/svg" xmlns:xlink="http://www.w3.org/1999/xlink">
    <!-- Generator: Sketch 51.2 (57519) - http://www.bohemiancoding.com/sketch -->
    <title>Group 5</title>
    <desc>Created with Sketch.</desc>
    <defs></defs>
    <g id="Page-1" stroke="none" stroke-width="1" fill="none" fill-rule="evenodd">
        <g id="CV-big" transform="translate(-463.000000, -89.000000)" fill="#1A1919">
            <g id="Group-4" transform="translate(254.000000, 87.680000)">
                <g id="Group-5" transform="translate(209.000000, 2.000000)">
                    <path d="M4.91324036,5.24855491 C4.51113929,6 3.47871762,7.94219653 3.01141098,8.83236994 C2.53323673,7.94219653 1.47907988,5.95375723 1.13131679,5.26011561 C0.848759283,4.71676301 0.543379822,3.83815029 0.543379822,3.19075145 C0.543379822,1.74566474 1.65296142,0.578034682 3.01141098,0.578034682 C4.36986053,0.578034682 5.47835537,1.74566474 5.47835537,3.19075145 C5.47835537,3.8150289 5.18493027,4.7283237 4.91324036,5.24855491 M3.01141098,0 C1.35844956,0 0,1.43352601 0,3.19075145 C0,3.95375723 0.33798225,4.9017341 0.652055787,5.52601156 C0.956348488,6.13872832 1.77141822,7.67630058 2.31479804,8.69364162 C2.56583952,9.16763006 2.75058866,9.50289017 2.77123709,9.54913295 L3.01141098,10 L3.22767615,9.56069364 C3.2396305,9.54913295 3.28310089,9.46820809 3.60912878,8.85549133 C4.12968665,7.87283237 4.99909437,6.21965318 5.380547,5.52601156 C5.6848397,4.95953757 6,3.94219653 6,3.19075145 C6,1.43352601 4.66328564,0 3.01141098,0" id="Fill-4"></path>
                    <path d="M3.0005684,4.44318182 C2.47764305,4.44318182 2.05702918,4.01136364 2.05702918,3.5 C2.05702918,2.97727273 2.47764305,2.55681818 3.0005684,2.55681818 C3.51098901,2.55681818 3.94297082,2.97727273 3.94297082,3.5 C3.94297082,4.01136364 3.51098901,4.44318182 3.0005684,4.44318182 M3.0005684,2 C2.1707086,2 1.5,2.67045455 1.5,3.5 C1.5,4.31818182 2.1707086,5 3.0005684,5 C3.8292914,5 4.5,4.31818182 4.5,3.5 C4.5,2.67045455 3.8292914,2 3.0005684,2" id="Fill-5"></path>
                </g>
            </g>
        </g>
    </g>
</svg>