<?xml version="1.0" encoding="UTF-8"?>
<svg width="9px" height="8px" viewBox="0 0 9 8" version="1.1" xmlns="http://www.w3.org/2000/svg" xmlns:xlink="http://www.w3.org/1999/xlink">
    <!-- Generator: Sketch 51.2 (57519) - http://www.bohemiancoding.com/sketch -->
    <title>Fill 3</title>
    <desc>Created with Sketch.</desc>
    <defs></defs>
    <g id="Page-1" stroke="none" stroke-width="1" fill="none" fill-rule="evenodd">
        <g id="CV-big" transform="translate(-352.000000, -91.000000)" fill="#1A1919">
            <g id="Group-4" transform="translate(254.000000, 87.680000)">
                <path d="M106.409091,6.21590909 C106.312182,6.327 106.205818,6.42863636 106.09,6.52081818 C105.430545,7.02781818 104.765182,7.54545455 104.123455,8.08081818 C103.777182,8.37154545 103.348182,8.72727273 102.868364,8.72727273 L102.858909,8.72727273 C102.379091,8.72727273 101.948909,8.37154545 101.602636,8.08081818 C100.960909,7.54545455 100.296727,7.02781818 99.6360909,6.52081818 C99.5214545,6.42863636 99.4150909,6.327 99.3181818,6.21590909 L99.3181818,9.76136364 C99.3181818,9.83936364 99.3867273,9.90909091 99.4659091,9.90909091 L106.261364,9.90909091 C106.339364,9.90909091 106.409091,9.83936364 106.409091,9.76136364 L106.409091,6.21590909 Z M106.261364,4.59090909 L99.4659091,4.59090909 C99.3867273,4.59090909 99.3181818,4.65945455 99.3181818,4.73863636 C99.3181818,5.26454545 99.5805455,5.72190909 99.9965455,6.04927273 C100.614636,6.53381818 101.233909,7.02309091 101.847273,7.51354545 C102.091909,7.71090909 102.535091,8.13636364 102.858909,8.13636364 L102.868364,8.13636364 C103.191,8.13636364 103.634182,7.71090909 103.878818,7.51354545 C104.493364,7.02309091 105.111455,6.53381818 105.730727,6.04927273 C106.029727,5.81409091 106.409091,5.30118182 106.409091,4.90881818 C106.409091,4.79418182 106.436273,4.59090909 106.261364,4.59090909 Z M107,9.76136364 C107,10.1679091 106.667909,10.5 106.261364,10.5 L99.4659091,10.5 C99.0593636,10.5 98.7272727,10.1679091 98.7272727,9.76136364 L98.7272727,4.73863636 C98.7272727,4.33209091 99.0593636,4 99.4659091,4 L106.261364,4 C106.667909,4 107,4.33209091 107,4.73863636 L107,9.76136364 Z" id="Fill-3"></path>
            </g>
        </g>
    </g>
</svg>