<?xml version="1.0" encoding="UTF-8"?>
<svg width="9px" height="9px" viewBox="0 0 9 9" version="1.1" xmlns="http://www.w3.org/2000/svg" xmlns:xlink="http://www.w3.org/1999/xlink">
    <!-- Generator: Sketch 51.2 (57519) - http://www.bohemiancoding.com/sketch -->
    <title>Fill 6</title>
    <desc>Created with Sketch.</desc>
    <defs></defs>
    <g id="Page-1" stroke="none" stroke-width="1" fill="none" fill-rule="evenodd">
        <path d="M7.68454545,8.22863636 C7.36954545,8.39909091 7.05045455,8.5 6.69318182,8.5 C6.19818182,8.5 5.75090909,8.29681818 5.29818182,8.13181818 C4.97363636,8.01454545 4.65863636,7.87136364 4.36545455,7.69 C3.46,7.13090909 2.36772727,6.03863636 1.80863636,5.13318182 C1.62727273,4.84 1.48409091,4.52636364 1.36681818,4.20045455 C1.20181818,3.74772727 1,3.30045455 1,2.80545455 C1,2.44818182 1.10090909,2.12909091 1.27136364,1.81409091 C1.40363636,1.57545455 1.57409091,1.27681818 1.83590909,1.165 C2.01181818,1.08454545 2.38409091,1 2.57636364,1 C2.61318182,1 2.65,1 2.68818182,1.015 C2.8,1.05318182 2.91727273,1.31363636 2.97045455,1.42 C3.14090909,1.72409091 3.30590909,2.03363636 3.48181818,2.33090909 C3.56636364,2.47 3.72727273,2.64045455 3.72727273,2.80545455 C3.72727273,3.13 2.76181818,3.60454545 2.76181818,3.89227273 C2.76181818,4.03545455 2.89545455,4.22227273 2.97045455,4.35045455 C3.50772727,5.32 4.18,5.99090909 5.14818182,6.52818182 C5.27636364,6.60318182 5.46318182,6.73681818 5.60636364,6.73681818 C5.89409091,6.73681818 6.36863636,5.77272727 6.69318182,5.77272727 C6.85818182,5.77272727 7.02863636,5.93227273 7.16772727,6.01681818 C7.46636364,6.19272727 7.77454545,6.35772727 8.07863636,6.52818182 C8.185,6.58136364 8.44545455,6.69863636 8.48363636,6.81045455 C8.5,6.84863636 8.5,6.88545455 8.5,6.92227273 C8.5,7.11454545 8.41409091,7.48818182 8.33363636,7.66272727 C8.22181818,7.92454545 7.92454545,8.095 7.68454545,8.22863636 Z" id="Fill-6" stroke="#979797" fill="#D8D8D8"></path>
    </g>
</svg>